<?xml version="1.0" encoding="UTF-8" standalone="no"?>
<svg width="512px" height="512px" viewBox="0 0 512 512" version="1.1" xmlns="http://www.w3.org/2000/svg" xmlns:xlink="http://www.w3.org/1999/xlink" xmlns:sketch="http://www.bohemiancoding.com/sketch/ns">
    <title>Slice 1</title>
    <description>Created with Sketch (http://www.bohemiancoding.com/sketch)</description>
    <defs></defs>
    <g id="Page 1" stroke="none" stroke-width="1" fill="none" fill-rule="evenodd">
        <g id="Group" fill="#000000">
            <path d="M336.656,144.592 L264.736,191.184 L336.656,237.952 L336.656,144.592 Z M175.536,237.472 L247.072,191.168 L175.536,144.608 L175.536,237.472 Z M256.096,0.896 C114.976,0.896 0.544,115.296 0.544,256.448 C0.544,397.568 114.976,512 256.096,512 C397.248,512 511.664,397.568 511.664,256.448 C511.664,115.312 397.248,0.896 256.096,0.896 L256.096,0.896 Z M346.288,401.232 L260.752,348.848 L260.752,447.968 L251.136,441.568 L251.136,254.592 L260.752,248.192 L260.752,337.568 L336.672,384.064 L336.672,249.392 L256.08,196.992 L175.504,248.928 L175.504,392.608 L165.92,392.608 L165.92,126.88 L255.904,185.424 L346.272,126.912 L346.288,401.232 L346.288,401.232 Z M346.288,401.232" id="Shape"></path>
        </g>
    </g>
</svg>