<?xml version="1.0" standalone="no"?>
<!DOCTYPE svg PUBLIC "-//W3C//DTD SVG 20010904//EN"
 "http://www.w3.org/TR/2001/REC-SVG-20010904/DTD/svg10.dtd">
<svg version="1.0" xmlns="http://www.w3.org/2000/svg"
 width="471.000000pt" height="471.000000pt" viewBox="0 0 471.000000 471.000000"
 preserveAspectRatio="xMidYMid meet">
<metadata>
Created by potrace 1.11, written by Peter Selinger 2001-2013
</metadata>
<g transform="translate(0.000000,471.000000) scale(0.100000,-0.100000)"
fill="#000000" stroke="none">
<path d="M816 4111 c-3 -5 1 -12 10 -15 22 -8 25 -4 9 11 -8 7 -16 9 -19 4z"/>
<path d="M864 4109 c-3 -6 -2 -15 3 -20 5 -5 9 -1 9 11 0 23 -2 24 -12 9z"/>
<path d="M889 4110 c-1 -5 -2 -14 -3 -19 0 -5 -4 -12 -8 -16 -4 -4 -5 -12 -4
-18 2 -7 1 -9 -1 -4 -8 13 -22 -3 -17 -18 4 -8 9 -13 13 -10 4 2 8 -2 8 -10 0
-8 -4 -15 -9 -15 -4 0 -8 -5 -8 -11 0 -5 4 -8 8 -5 4 2 8 -58 8 -134 -1 -76
-4 -136 -9 -133 -4 2 -5 8 -2 13 3 4 -1 10 -9 13 -21 8 -13 -23 9 -39 10 -8
17 -15 14 -15 -14 -5 -74 -8 -141 -8 -42 -1 -80 -5 -83 -11 -3 -5 -1 -10 5
-10 6 0 8 -10 4 -27 -4 -15 -7 -46 -8 -69 0 -26 -4 -40 -11 -38 -15 6 -49 -27
-53 -51 -2 -16 -1 -17 7 -5 6 8 11 10 11 4 0 -17 28 -25 36 -12 4 6 3 8 -3 5
-6 -4 -16 0 -24 9 -10 12 -9 18 3 31 27 26 34 8 34 -79 -1 -67 -4 -83 -16 -83
-8 0 -15 -8 -15 -17 0 -9 -4 -20 -8 -24 -4 -4 -7 -2 -7 4 0 7 -4 12 -9 12 -4
0 -8 -17 -7 -37 l1 -38 -207 -3 c-119 -1 -208 -6 -208 -12 0 -5 8 -7 18 -5 11
2 19 -3 19 -11 0 -11 -3 -11 -16 -1 -12 10 -14 9 -8 -6 4 -10 7 -21 7 -23 0
-3 6 -2 13 2 9 6 8 3 -1 -8 -8 -9 -21 -14 -30 -12 -14 5 -13 2 2 -10 16 -13
22 -13 29 -3 6 9 8 8 5 -3 -3 -8 -15 -14 -29 -14 -20 0 -24 4 -24 31 0 17 -3
34 -7 38 -11 11 -7 -58 5 -80 9 -18 9 -19 -7 -6 -14 12 -16 12 -11 0 3 -8 15
-20 26 -27 19 -12 20 -11 14 7 -5 16 -2 20 14 18 14 -1 17 -5 11 -11 -13 -13
-13 -29 -1 -22 5 4 8 -2 6 -11 -1 -10 -10 -17 -19 -17 -19 2 -16 -20 2 -22 24
-3 26 -4 14 -16 -16 -16 -15 -31 1 -22 6 4 4 -2 -6 -14 -19 -21 -19 -59 -1
-55 6 1 11 -4 11 -12 0 -8 -4 -12 -9 -9 -12 8 -10 -10 4 -24 9 -9 9 -15 0 -24
-16 -16 -15 -31 1 -22 6 4 3 -3 -8 -16 -19 -23 -19 -23 -1 -16 20 7 20 7 0
-15 -15 -18 -16 -21 -3 -17 12 5 16 1 15 -13 -1 -11 -4 -19 -8 -19 -5 0 -13 0
-19 0 -6 0 -9 6 -6 14 4 9 -2 13 -17 12 -14 0 -22 -6 -19 -13 3 -7 9 -10 14
-7 5 3 6 -2 3 -10 -3 -9 -11 -13 -16 -10 -6 4 -5 -3 1 -15 14 -26 23 -27 19
-3 -2 11 2 16 12 13 8 -2 20 -4 25 -4 6 0 12 -9 12 -20 2 -16 -3 -18 -25 -13
-25 6 -26 5 -8 -9 10 -8 23 -12 29 -8 6 3 7 2 4 -4 -8 -13 -53 -9 -50 5 1 5
-4 12 -11 15 -9 4 -12 -2 -8 -19 4 -24 8 -26 48 -27 15 0 21 -6 20 -21 -1 -12
-6 -21 -13 -21 -6 0 -15 -3 -19 -7 -4 -5 -1 -8 6 -8 11 0 11 -3 2 -12 -7 -7
-12 -17 -12 -23 1 -5 10 1 20 14 11 13 20 19 20 13 0 -18 -30 -41 -46 -35 -11
4 -12 9 -5 16 16 16 13 23 -10 24 -16 2 -18 -1 -10 -11 6 -7 7 -16 3 -20 -4
-4 2 -14 13 -22 20 -15 20 -15 1 -30 -11 -7 -16 -17 -12 -21 4 -5 13 -1 19 7
13 16 47 23 47 10 0 -5 -10 -10 -22 -12 -12 -2 -22 -11 -24 -23 -2 -11 -8 -21
-13 -23 -17 -6 -13 -18 7 -19 10 -1 19 5 20 13 1 8 3 20 4 27 1 8 7 14 15 14
9 0 10 -4 3 -11 -14 -14 -13 -29 3 -20 6 4 4 -2 -5 -13 -10 -11 -18 -26 -18
-33 0 -9 4 -8 13 4 12 16 14 16 14 2 0 -14 -10 -20 -29 -17 -4 0 -6 -8 -5 -19
1 -11 5 -20 10 -20 5 0 4 -7 -3 -15 -12 -15 -6 -35 11 -35 6 0 7 4 4 10 -3 5
-2 17 3 26 6 12 9 8 9 -16 0 -29 -3 -31 -26 -26 -25 6 -25 5 -7 -9 10 -8 23
-12 29 -8 6 3 7 2 4 -4 -8 -13 -53 -9 -50 5 1 5 -4 12 -11 15 -9 4 -12 -2 -8
-19 4 -24 8 -26 47 -27 14 0 21 -7 22 -19 2 -17 -3 -19 -25 -14 -25 6 -26 5
-8 -9 10 -8 23 -12 29 -8 6 3 7 2 4 -4 -8 -13 -53 -9 -50 5 1 5 -4 12 -11 15
-9 4 -12 -2 -8 -19 2 -13 9 -24 16 -24 7 0 7 -3 -1 -8 -9 -6 -6 -11 8 -20 19
-12 20 -11 14 7 -5 16 -2 20 14 18 14 -1 17 -5 11 -11 -13 -13 -13 -29 -1 -22
5 4 8 -2 6 -11 -1 -10 -10 -17 -19 -17 -19 2 -16 -20 2 -22 24 -3 26 -4 14
-16 -16 -16 -15 -31 1 -22 6 4 4 -2 -5 -13 -22 -25 -23 -39 -2 -47 16 -6 16
-8 0 -24 -21 -24 -21 -38 1 -21 11 10 14 10 9 2 -7 -12 12 -19 38 -14 5 1 13
-4 17 -11 6 -9 9 -9 9 -1 0 8 24 11 80 10 77 -2 97 -8 64 -21 -9 -3 -12 -11
-8 -18 5 -8 2 -9 -10 -5 -10 4 -15 3 -11 -3 3 -6 1 -10 -6 -10 -7 0 -10 -3 -7
-6 10 -9 49 16 43 27 -4 5 -2 9 2 9 5 0 10 -41 10 -91 1 -50 4 -93 6 -96 3 -2
50 -5 106 -5 55 -1 101 -4 102 -7 7 -38 4 -73 -7 -82 -9 -8 -14 -8 -14 -1 0 6
5 14 11 17 7 5 2 16 -12 31 -23 25 -14 34 11 12 12 -11 12 -10 1 4 -18 24 -47
19 -47 -9 0 -17 3 -20 13 -11 9 7 13 7 13 0 0 -6 -8 -16 -17 -21 -10 -6 -13
-11 -6 -11 6 0 15 5 18 10 3 6 11 10 17 10 7 0 6 -5 -2 -15 -14 -17 -5 -36 13
-29 10 4 13 -24 13 -129 0 -117 -2 -134 -15 -132 -9 2 -19 4 -23 4 -5 1 -8 8
-8 16 0 8 -4 15 -8 15 -12 0 -9 -37 3 -38 5 0 19 -3 30 -6 11 -2 23 -5 27 -5
10 -1 5 -41 -5 -41 -4 0 -6 -4 -2 -9 3 -6 95 -9 223 -8 174 2 216 5 214 15 -1
8 2 11 8 7 6 -3 8 -11 4 -16 -3 -6 23 -9 66 -8 39 1 73 -1 77 -4 3 -4 6 -34 6
-67 1 -50 3 -59 16 -55 10 3 22 -4 30 -18 14 -22 14 -22 -8 -3 -11 11 -21 14
-21 8 0 -7 -3 -11 -7 -11 -5 1 -12 1 -18 0 -5 -1 -37 -2 -70 -3 -33 0 -66 -5
-74 -11 -9 -8 -12 -8 -8 -1 4 7 -13 11 -53 11 -41 0 -57 -3 -53 -11 5 -7 2 -7
-8 1 -8 6 -34 10 -59 9 -36 -1 -44 -5 -42 -18 1 -9 -2 -19 -8 -23 -12 -8 -50
12 -50 27 0 6 11 3 25 -6 14 -9 25 -12 25 -6 0 5 -5 10 -11 10 -5 0 -8 4 -5 8
3 5 -5 8 -16 7 -30 -2 -33 -20 -6 -39 12 -9 17 -16 10 -16 -6 0 -12 -7 -12
-16 0 -8 -4 -13 -8 -10 -4 3 -9 -24 -9 -60 -1 -39 3 -64 10 -64 6 0 7 3 4 7
-4 3 -2 12 4 20 9 9 8 13 0 13 -6 0 -11 5 -11 11 0 5 4 8 9 5 4 -3 7 10 5 29
-1 22 3 35 13 39 8 3 12 10 9 15 -3 5 1 12 10 15 25 10 26 2 4 -22 -19 -20
-18 -26 1 -24 3 1 5 -9 4 -21 -2 -12 -8 -21 -15 -19 -6 1 -10 -3 -7 -10 2 -7
9 -12 14 -11 10 2 11 -137 0 -153 -3 -6 -3 -14 0 -18 11 -11 11 -56 0 -56 -6
0 -7 -3 -4 -7 4 -3 1 -13 -6 -21 -10 -13 -9 -15 4 -10 12 5 15 -2 14 -38 0
-24 -6 -49 -13 -56 -16 -16 -15 -33 1 -20 11 9 13 3 12 -31 -2 -28 -6 -41 -15
-39 -8 2 -10 -3 -6 -13 3 -9 6 -20 6 -23 0 -4 5 0 10 8 8 11 9 9 6 -12 -2 -14
2 -35 9 -45 13 -17 14 -17 38 5 18 17 31 22 47 17 14 -5 20 -3 16 3 -3 6 2 9
11 8 10 -2 18 -9 18 -17 0 -8 9 -19 20 -26 18 -10 18 -11 -7 -10 -14 1 -24 5
-22 8 2 4 -3 10 -12 13 -25 10 -27 7 -13 -11 13 -16 12 -17 -3 -5 -11 9 -18
10 -23 2 -3 -5 -11 -10 -17 -10 -5 0 0 9 13 20 31 25 10 26 -22 1 -14 -11 -36
-17 -53 -16 -15 2 -25 0 -21 -3 4 -4 50 -7 104 -8 53 0 101 -3 107 -6 5 -4 16
-3 23 1 7 5 22 6 33 3 23 -6 21 19 -2 26 -7 3 -10 0 -6 -6 4 -7 -1 -9 -14 -7
-11 2 -20 -1 -20 -6 0 -6 -5 -7 -11 -3 -8 4 -7 9 2 15 7 4 17 5 21 3 4 -3 8
-1 8 4 0 16 -12 21 -29 12 -10 -5 -23 -5 -32 1 -12 7 -12 9 1 9 13 0 13 1 0
10 -9 6 -10 10 -3 10 6 0 15 -4 18 -10 9 -15 27 -12 19 3 -4 6 2 4 13 -6 11
-9 26 -17 33 -17 9 0 7 5 -6 16 -18 15 -18 15 3 5 27 -13 36 -14 29 -2 -4 5 2
8 11 7 10 -2 18 -9 18 -17 0 -8 6 -18 13 -22 6 -4 12 -13 12 -20 0 -8 -3 -7
-9 2 -5 8 -14 10 -21 6 -8 -5 -11 -4 -7 2 4 6 0 14 -9 17 -24 9 -25 8 -12 -14
7 -11 18 -18 25 -16 7 3 15 1 18 -5 4 -5 13 -6 22 0 9 4 25 6 36 3 22 -6 20
19 -3 26 -7 3 -10 0 -7 -5 3 -5 0 -10 -8 -10 -13 0 -25 17 -31 45 -1 7 3 9 9
5 7 -4 21 -7 32 -5 16 1 15 0 -4 -8 -33 -14 -21 -23 13 -10 16 6 24 15 20 21
-5 8 -1 8 14 0 25 -13 35 -14 28 -2 -4 5 2 8 11 7 10 -2 18 -9 18 -17 0 -15
14 -29 29 -29 5 0 2 8 -5 17 -11 15 -11 16 1 6 19 -17 31 -16 24 1 -7 18 12
30 22 15 4 -8 3 -9 -4 -5 -7 4 -12 2 -12 -5 0 -6 8 -9 19 -6 13 3 18 1 14 -9
-2 -7 -11 -10 -19 -7 -10 4 -13 0 -8 -13 3 -12 3 -15 -3 -8 -4 6 -22 10 -40 9
-18 -1 -30 2 -28 6 3 4 -2 10 -11 13 -25 9 -27 7 -13 -11 12 -14 10 -14 -13 1
-16 10 -28 14 -28 10 1 -23 19 -31 68 -30 30 1 56 -2 58 -5 8 -14 39 3 51 27
9 20 8 26 -5 34 -10 5 -12 10 -5 10 6 0 15 -4 18 -10 3 -5 11 -10 16 -10 6 0
8 4 5 8 -4 7 12 11 57 12 16 1 18 12 14 126 -1 73 1 128 7 134 7 7 6 10 -3 10
-7 0 -9 5 -6 10 3 6 -1 10 -9 10 -19 0 -21 16 -4 26 7 4 8 3 4 -4 -4 -7 -2
-12 5 -12 7 0 10 13 7 35 -3 26 0 35 11 35 8 0 11 3 8 7 -4 3 -1 13 6 21 10
13 9 15 -3 10 -11 -4 -16 0 -16 13 0 16 2 17 16 4 20 -18 36 -20 22 -2 -8 10
-6 13 8 14 10 1 24 -5 31 -13 6 -8 16 -14 21 -14 7 0 6 5 0 13 -8 10 -6 13 8
14 10 1 24 -5 31 -13 6 -8 16 -14 21 -14 7 0 6 5 0 13 -8 10 -6 13 8 14 11 1
22 -2 25 -8 3 -5 -1 -6 -10 -3 -10 4 -15 2 -13 -7 2 -8 -5 -13 -15 -12 -11 0
-16 -4 -14 -11 3 -7 -1 -13 -8 -13 -10 0 -11 5 -5 17 9 17 4 30 -12 30 -4 0
-7 -3 -7 -7 5 -28 -1 -35 -18 -22 -14 12 -16 12 -11 -1 4 -11 -1 -15 -17 -15
-13 0 -21 4 -18 9 3 5 0 7 -6 5 -7 -3 -13 -9 -14 -14 -1 -6 40 -10 103 -10 58
0 108 -4 111 -9 4 -5 6 8 6 28 -1 20 -6 35 -12 33 -5 -2 -9 -11 -7 -20 1 -8
-1 -18 -6 -21 -5 -3 -8 8 -8 23 0 21 4 28 18 27 10 -1 18 -5 17 -10 -1 -9 20
-26 34 -26 4 0 3 8 -2 18 -7 14 -6 18 9 19 10 1 24 -5 31 -13 7 -9 8 -14 1
-14 -6 0 -12 6 -15 13 -2 6 -8 9 -12 5 -12 -12 17 -40 34 -33 13 5 13 4 4 -6
-10 -9 -15 -10 -27 0 -19 16 -34 -6 -16 -22 9 -9 11 -9 7 -1 -7 12 48 13 60 1
3 -4 12 1 20 11 8 9 12 11 8 4 -5 -9 6 -12 44 -9 30 1 51 -2 51 -8 0 -7 3 -7
8 0 8 12 27 13 37 3 4 -3 20 -2 37 3 17 4 34 6 38 4 4 -2 7 2 7 9 0 9 -9 13
-26 10 -22 -3 -23 -2 -8 6 9 6 17 18 17 27 0 10 6 13 16 9 8 -3 12 -2 9 4 -3
6 -2 10 4 10 5 0 12 -5 14 -10 3 -6 4 -5 3 2 -2 7 -14 12 -27 11 -22 -3 -23
-2 -5 9 14 7 24 8 36 0 12 -7 17 -7 17 4 0 7 -4 11 -9 8 -10 -6 -11 10 -1 20
11 11 10 30 -1 38 -5 3 -11 16 -13 29 -3 17 -1 19 11 10 11 -9 13 -7 12 11 0
13 -5 26 -10 30 -5 3 -11 16 -13 29 -3 17 0 19 10 11 10 -8 12 2 12 52 0 53
-2 63 -15 58 -12 -4 -11 -1 3 15 9 11 14 23 10 26 -6 7 87 10 200 7 41 -1 57
2 57 12 0 10 2 11 8 0 5 -7 31 -13 60 -14 l52 -2 0 -76 c0 -47 -5 -81 -12 -89
-9 -10 -9 -12 -1 -7 16 9 16 -93 0 -113 -10 -12 -9 -13 1 -7 10 6 13 1 12 -20
-4 -57 -1 -75 13 -68 7 5 6 0 -3 -11 -14 -17 -13 -18 2 -12 12 4 15 2 12 -8
-4 -10 3 -13 28 -9 26 3 29 2 13 -5 -16 -8 -9 -10 28 -10 26 -1 47 4 47 9 0 6
5 10 11 10 5 0 7 -5 4 -10 -4 -7 12 -9 44 -7 28 1 53 -2 55 -8 3 -5 3 4 2 21
-2 17 -6 36 -9 41 -13 20 29 9 55 -14 16 -16 31 -22 40 -18 10 6 10 5 1 -5
-10 -10 -15 -11 -27 -1 -19 16 -34 -6 -16 -22 9 -9 11 -9 7 -1 -7 12 48 13 60
1 3 -4 12 1 20 11 8 9 12 11 8 4 -5 -9 6 -12 44 -9 28 1 53 -2 55 -8 2 -5 5
-4 5 3 1 7 6 10 11 7 6 -3 10 -1 10 5 0 7 -6 10 -13 7 -9 -3 -13 2 -11 16 1
12 3 25 3 30 1 4 6 7 12 7 8 0 9 -4 0 -13 -17 -21 -1 -29 18 -9 9 10 13 13 9
7 -8 -12 -1 -25 14 -25 4 0 7 3 7 8 -1 4 -1 13 0 20 1 19 24 10 27 -11 1 -10
-2 -14 -9 -10 -6 4 -8 0 -4 -10 5 -14 2 -15 -19 -7 -33 13 -33 13 -27 -11 3
-12 9 -16 12 -10 5 7 18 8 38 2 21 -6 35 -5 43 2 10 9 11 9 5 -2 -6 -10 -3
-12 12 -7 19 6 19 1 19 -134 0 -105 -4 -141 -13 -145 -11 -3 -11 0 -3 15 9 16
8 22 -5 26 -8 3 -15 10 -15 16 0 5 4 7 9 3 5 -3 12 -1 16 4 3 5 -3 15 -12 21
-15 10 -15 11 -1 6 19 -5 19 25 0 32 -7 2 -12 8 -12 13 0 6 4 8 9 4 5 -3 12
-1 15 4 10 16 -15 25 -26 10 -8 -12 -9 -11 -5 1 2 8 11 14 20 14 15 -1 17 12
4 34 -5 6 -5 12 0 12 4 0 1 5 -7 11 -13 10 -13 10 1 6 10 -3 15 2 15 18 0 20
-3 22 -19 13 -14 -7 -17 -7 -13 1 5 7 1 9 -8 5 -9 -3 -16 -14 -16 -23 0 -13 2
-13 9 -2 5 8 11 9 15 3 4 -6 0 -14 -7 -19 -7 -5 -13 -26 -13 -50 0 -23 5 -39
10 -36 6 4 6 -1 1 -13 -10 -25 -14 -74 -4 -69 4 3 10 -2 13 -10 3 -9 0 -18 -7
-21 -9 -3 -13 -22 -11 -57 3 -73 2 -73 18 -52 13 18 14 18 11 -6 -2 -17 2 -26
11 -26 10 0 11 4 4 11 -13 13 -13 29 0 21 6 -3 7 1 4 9 -3 9 -11 16 -17 16 -6
0 -3 6 8 13 10 8 15 19 11 25 -4 7 -2 12 4 12 7 0 9 -12 6 -34 -4 -24 -1 -40
9 -50 17 -17 20 -30 5 -21 -5 3 -10 1 -10 -4 0 -6 5 -11 10 -11 6 0 10 -5 10
-10 0 -7 -6 -7 -20 0 -16 9 -18 8 -13 -6 3 -9 13 -14 24 -11 11 3 19 0 19 -6
0 -6 7 -1 16 11 9 13 22 21 30 18 8 -3 17 1 21 9 4 11 9 13 18 5 6 -5 15 -7
18 -3 10 9 9 25 -1 19 -4 -2 -14 0 -22 5 -11 7 -9 8 8 6 13 -2 28 -10 33 -18
8 -12 13 -7 11 12 -2 13 59 3 68 -11 9 -13 14 -8 11 12 -1 8 37 3 63 -8 13 -5
17 -4 13 3 -4 7 0 10 10 9 10 -2 18 -9 18 -17 0 -17 16 -30 27 -23 4 3 8 14 8
25 0 10 4 19 9 19 14 0 7 -34 -9 -44 -18 -12 -51 -15 -45 -5 3 4 -2 10 -11 13
-25 10 -27 7 -13 -12 12 -15 12 -16 -2 -5 -9 7 -19 10 -22 6 -16 -15 -4 -20
49 -19 30 1 58 -2 60 -6 3 -5 10 -5 16 -2 14 9 99 11 104 3 6 -10 44 1 44 13
0 6 -8 7 -17 4 -13 -5 -11 0 6 18 25 27 37 34 26 16 -3 -5 -1 -10 4 -10 6 0
11 -5 11 -11 0 -8 -6 -7 -17 2 -15 12 -16 12 -10 -4 4 -10 7 -21 7 -23 0 -13
20 -1 25 16 3 11 9 19 13 19 21 -3 32 2 26 12 -4 8 -9 7 -15 -2 -7 -11 -9 -11
-9 1 0 13 -1 13 -10 0 -8 -13 -10 -12 -10 3 0 11 8 17 21 17 11 0 18 4 14 9
-3 5 -1 12 4 16 6 3 8 -3 6 -15 -2 -11 1 -20 9 -20 9 0 13 27 14 95 1 73 -1
94 -11 90 -6 -4 -3 1 7 9 11 9 16 16 10 16 -5 0 -8 31 -7 72 2 48 -1 75 -10
80 -9 6 -9 8 1 8 9 0 12 25 11 95 0 52 -5 95 -10 95 -5 0 -9 5 -9 11 0 5 4 7
10 4 5 -3 9 9 8 30 -1 35 -11 45 -24 23 -4 -6 -3 -8 2 -5 5 3 10 -3 10 -13 0
-10 -5 -16 -11 -13 -7 2 -17 -6 -24 -19 -7 -14 -10 -16 -6 -4 3 10 0 25 -6 32
-6 8 -9 21 -5 29 3 8 1 15 -5 15 -6 0 -8 4 -4 10 8 13 -137 10 -154 -4 -10 -7
-13 -7 -8 0 4 7 -13 11 -53 11 -41 0 -57 -3 -53 -11 5 -7 2 -7 -8 1 -16 13
-17 13 -58 13 l-29 0 -4 74 -3 74 48 4 c26 2 49 -1 51 -7 4 -9 10 21 7 38 0 4
4 7 10 7 6 0 8 -9 4 -21 -6 -19 -3 -20 42 -17 33 2 47 7 45 16 -1 8 2 11 8 7
6 -3 8 -10 5 -15 -3 -5 43 -9 107 -9 77 0 115 4 120 12 6 9 8 9 8 0 0 -20 89
-16 114 5 20 16 20 16 7 -1 -12 -15 -11 -17 3 -17 16 0 18 6 19 47 0 12 4 20
8 17 5 -3 9 0 9 5 0 6 8 11 18 11 15 0 15 2 2 11 -13 9 -13 10 0 6 8 -2 14
-10 13 -16 -2 -6 2 -11 7 -11 14 0 12 23 -2 39 -7 8 -8 11 -2 8 8 -5 11 34 12
134 1 108 -1 138 -11 133 -9 -6 -9 -4 0 8 7 8 10 18 6 21 -9 10 -25 9 -19 -1
2 -4 -5 -9 -16 -9 l-21 -2 21 15 c11 8 25 14 29 13 4 -1 16 1 26 6 9 4 31 5
47 3 17 -3 30 -2 30 2 0 3 15 4 34 2 18 -2 37 1 40 7 4 6 12 11 17 11 6 0 8
-4 5 -8 -2 -4 5 -9 16 -9 20 -2 20 -1 2 13 -18 14 -18 14 1 8 15 -4 16 -3 6 4
-11 8 -11 11 0 16 8 3 5 4 -7 1 -14 -4 -21 0 -21 10 0 10 6 13 17 10 13 -4 17
0 18 20 0 28 -2 29 -30 14 -12 -6 -18 -7 -14 -1 3 5 0 12 -8 15 -15 6 -15 36
0 71 6 15 4 17 -7 11 -12 -8 -12 -6 0 8 17 22 44 3 36 -24 -5 -14 -2 -17 9
-13 18 7 21 25 6 40 -6 6 22 11 83 12 50 2 104 4 118 4 l26 2 0 435 c-1 298
-4 438 -11 443 -7 5 -7 8 2 8 6 0 12 7 12 15 0 8 -6 15 -12 15 -9 0 -10 2 -2
8 15 9 15 184 0 194 -8 5 -7 8 2 8 14 0 16 27 2 32 -6 2 -12 13 -15 26 -6 31
-14 42 -28 38 -7 -1 -8 -1 -4 2 4 2 3 10 -4 18 -9 11 -9 14 1 14 9 0 9 4 -1
17 -12 14 -12 16 0 8 11 -6 13 -4 8 9 -4 10 -7 20 -7 22 0 2 -86 4 -191 4
-186 0 -191 1 -186 20 3 11 1 23 -4 26 -5 3 -9 -2 -9 -10 0 -9 -5 -16 -11 -16
-5 0 -7 -6 -3 -12 4 -7 3 -9 -1 -5 -5 4 -10 15 -11 23 -1 9 0 13 3 10 11 -10
41 39 34 54 -5 8 -6 30 -4 49 3 25 1 31 -9 25 -10 -6 -11 -5 0 8 15 18 15 228
-1 228 -5 0 -4 7 3 15 7 8 11 16 9 16 -2 1 -51 3 -108 5 -57 2 -106 6 -109 9
-3 3 -5 34 -4 70 1 48 -2 64 -11 59 -8 -5 -8 -3 1 7 19 20 15 86 -5 99 -17 11
-17 11 0 6 16 -5 17 3 15 92 l-3 97 -78 3 c-62 2 -77 0 -71 -10 6 -10 4 -10
-7 -2 -8 7 -58 11 -129 10 -92 -1 -115 -4 -115 -15 0 -8 -7 -16 -15 -18 -9 -3
-11 -1 -5 4 32 26 12 32 -110 31 -95 0 -125 -4 -125 -13 0 -8 6 -16 13 -18 6
-3 2 -6 -9 -6 -12 -1 -28 -8 -35 -18 -13 -15 -12 -15 8 -2 19 11 24 11 35 0
11 -11 11 -13 0 -7 -7 4 -19 3 -27 -4 -7 -6 -22 -10 -32 -8 -12 2 -18 -4 -19
-19 -1 -13 3 -23 7 -23 5 0 9 -5 9 -11 0 -5 -3 -8 -7 -6 -5 3 -9 -6 -10 -20
-1 -19 1 -22 8 -12 7 11 9 12 9 0 0 -9 7 -11 23 -7 20 5 23 2 22 -17 -2 -24
-31 -35 -48 -18 -7 7 -3 8 12 4 11 -3 21 -1 21 4 0 5 -10 9 -22 8 -13 -2 -22
-8 -20 -14 1 -6 -7 -11 -17 -11 -16 0 -19 -6 -17 -35 3 -31 1 -33 -15 -24 -11
5 -19 14 -19 19 0 6 -8 10 -17 11 -13 0 -14 2 -4 6 8 3 20 -2 27 -11 9 -13 14
-14 20 -5 4 7 2 15 -4 17 -7 2 -10 7 -8 11 7 11 -226 8 -243 -3 -10 -6 -12 -6
-7 2 5 8 -2 12 -19 12 -15 0 -24 -4 -20 -10 3 -5 1 -10 -4 -10 -6 0 -11 4 -11
8 0 5 -53 8 -117 8 -104 -1 -118 -3 -121 -18 -2 -10 1 -18 7 -18 6 0 11 -5 11
-11 0 -5 -4 -7 -10 -4 -7 4 -10 -61 -10 -189 l0 -194 -184 -2 c-203 -1 -196
-3 -190 65 2 26 0 34 -7 25 -5 -9 -9 -10 -9 -3 0 6 -8 11 -18 10 -13 -1 -18
-9 -18 -28 0 -16 3 -26 7 -23 5 2 6 10 3 18 -3 7 1 13 9 13 8 0 14 -11 14 -28
0 -17 -5 -25 -13 -22 -6 2 -15 0 -18 -5 -3 -5 6 -8 19 -6 14 1 25 -1 25 -5 0
-5 -12 -8 -28 -9 l-27 -1 0 124 c-1 68 1 122 3 120 3 -2 13 6 23 18 10 12 18
18 19 13 0 -5 -7 -18 -17 -28 -20 -23 -12 -33 16 -19 19 11 26 51 8 51 -4 0
-5 5 -2 10 4 6 12 7 18 3 7 -3 4 2 -5 13 -12 14 -14 24 -7 36 8 14 7 16 -7 11
-11 -4 -15 -3 -10 5 3 6 1 14 -5 18 -8 4 -9 3 -5 -4 4 -7 3 -12 -3 -12 -5 0
-11 3 -14 8 -2 4 -2 1 -1 -5 2 -7 -1 -13 -6 -13 -6 0 -10 10 -10 23 0 18 -2
19 -10 7 -7 -11 -10 -11 -10 -2 0 7 -5 10 -12 6 -6 -4 -8 -3 -5 4 4 5 18 9 30
8 21 -3 22 0 13 19 -8 18 -18 22 -65 22 -65 0 -88 -15 -71 -47 6 -11 8 -20 6
-20 -13 0 -27 42 -17 53 7 10 -3 13 -45 15 -54 2 -59 -1 -55 -38 2 -13 0 -13
-8 -1 -5 8 -7 19 -5 26 3 8 -25 11 -96 11 -56 1 -95 -3 -88 -7 10 -7 8 -9 -4
-9 -10 0 -18 4 -18 9 0 6 -22 10 -49 9 -41 0 -49 -3 -45 -16 5 -14 4 -14 -6 1
-6 9 -16 17 -23 17 -13 0 -16 177 -3 198 9 15 14 13 -66 17 -65 4 -73 1 -70
-26 1 -3 -6 -6 -14 -6 -10 0 -11 4 -4 11 19 19 10 27 -27 24 -25 -2 -38 -8
-38 -17 0 -8 -7 -16 -15 -18 -9 -3 -11 -1 -5 4 25 21 14 33 -31 33 -33 0 -43
-3 -38 -12 6 -10 4 -10 -7 0 -14 13 -73 17 -65 4 3 -5 -1 -9 -9 -9 -8 0 -12 4
-9 9 9 13 -140 9 -155 -4 -11 -10 -13 -10 -7 0 5 9 -6 12 -43 12 -28 0 -52 -4
-52 -10z m642 -15 c-4 -5 -7 -22 -6 -37 2 -31 -9 -37 -19 -12 -5 12 -10 13
-19 6 -10 -8 -13 -6 -14 9 -1 14 3 19 12 15 8 -3 17 0 21 6 5 7 2 8 -6 3 -9
-5 -11 -4 -6 3 5 8 2 10 -8 6 -9 -3 -16 -2 -16 3 0 5 16 9 34 9 23 0 32 -4 27
-11z m1877 2 c8 -10 6 -13 -7 -13 -11 0 -17 6 -14 13 3 7 6 13 8 13 1 0 7 -6
13 -13z m343 -10 c-10 -9 -11 -8 -5 6 3 10 9 15 12 12 3 -3 0 -11 -7 -18z
m125 -16 c1 -22 -3 -31 -11 -27 -7 2 -18 -1 -24 -7 -8 -8 -11 -8 -11 1 0 18
-2 25 -10 48 -7 18 -5 20 23 19 28 -1 32 -5 33 -34z m-2909 6 c1 -11 1 -18 0
-16 -2 2 -8 11 -15 20 -9 12 -9 16 1 16 7 0 14 -9 14 -20z m236 10 c-4 -7 1
-8 12 -3 15 5 16 4 5 -9 -7 -9 -13 -14 -14 -13 -1 2 -7 10 -14 19 -9 13 -9 16
3 16 8 0 11 -5 8 -10z m60 -17 c3 -11 1 -18 -4 -14 -5 3 -9 12 -9 20 0 20 7
17 13 -6z m104 7 c0 -7 -13 -13 -30 -14 -19 0 -25 2 -16 7 7 5 16 7 20 4 4 -2
10 0 14 6 8 13 12 13 12 -3z m2083 9 c0 -2 -8 -10 -17 -17 -16 -13 -17 -12 -4
4 13 16 21 21 21 13z m72 -8 c-6 -6 -22 -13 -34 -15 -18 -2 -19 -1 -8 6 8 5
17 8 21 5 4 -2 10 0 14 6 3 5 9 10 13 10 3 0 1 -5 -6 -12z m205 -3 c0 -8 -4
-15 -9 -15 -10 0 -11 14 -1 23 9 10 10 9 10 -8z m-2806 -18 c-10 -9 -11 -8 -5
6 3 10 9 15 12 12 3 -3 0 -11 -7 -18z m268 0 c0 -8 -2 -8 -6 1 -4 10 -8 10
-21 0 -15 -12 -16 -11 -3 4 14 19 32 15 30 -5z m2141 13 c0 -5 -4 -10 -10 -10
-5 0 -10 5 -10 10 0 6 5 10 10 10 6 0 10 -4 10 -10z m260 2 c0 -4 -10 -9 -22
-9 -18 -2 -20 0 -8 7 18 12 30 13 30 2z m80 -2 c0 -5 -4 -10 -10 -10 -5 0 -10
5 -10 10 0 6 5 10 10 10 6 0 10 -4 10 -10z m-2606 -8 c2 -4 -4 -8 -14 -8 -10
0 -16 4 -14 8 3 4 9 8 14 8 5 0 11 -4 14 -8z m427 -35 c-6 -8 -7 -18 -3 -22 4
-5 1 -5 -6 -1 -10 6 -10 11 -1 22 6 8 14 14 16 14 3 0 0 -6 -6 -13z m1709 3
c21 13 27 12 27 -5 0 -8 -4 -12 -9 -9 -4 3 -8 0 -8 -6 0 -6 -6 -8 -12 -5 -7 4
-2 -3 11 -15 21 -18 22 -23 10 -31 -21 -13 -34 -5 -35 22 -1 13 -4 33 -9 44
-4 12 -3 15 2 8 6 -8 14 -9 23 -3z m645 -28 c-3 -3 -11 0 -18 7 -9 10 -8 11 6
5 10 -3 15 -9 12 -12z m-2319 -14 c4 -6 3 -8 -4 -4 -5 3 -13 0 -15 -6 -3 -8
-6 -6 -6 5 -1 19 14 23 25 5z m2339 -7 c3 -5 0 -13 -6 -17 -7 -4 -9 -3 -5 4 3
5 0 13 -6 15 -9 4 -10 6 -1 6 6 1 14 -3 18 -8z m-2375 -11 c0 -5 -5 -10 -11
-10 -5 0 -7 5 -4 10 3 6 8 10 11 10 2 0 4 -4 4 -10z m36 -22 c4 -6 3 -8 -4 -4
-5 3 -12 1 -14 -6 -2 -6 -12 -12 -21 -14 -9 -1 -15 2 -11 7 3 5 9 7 14 4 4 -3
10 2 14 10 7 18 12 19 22 3z m2349 2 c-3 -5 -12 -10 -18 -10 -7 0 -6 4 3 10
19 12 23 12 15 0z m-25 -25 c0 -1 -6 -7 -13 -13 -10 -8 -13 -6 -13 7 0 11 6
17 13 14 7 -3 13 -6 13 -8z m-2277 -69 c4 4 7 3 7 -3 0 -15 -27 -24 -27 -10 0
7 -4 21 -7 32 -6 16 -4 15 6 -3 8 -12 17 -19 21 -16z m67 30 c0 -8 -31 -36
-41 -36 -5 0 -9 5 -9 11 0 5 4 8 9 5 5 -3 14 1 21 9 12 15 20 19 20 11z m17
-18 c-3 -8 -6 -5 -6 6 -1 11 2 17 5 13 3 -3 4 -12 1 -19z m63 2 c-28 -22 -50
-26 -50 -9 0 5 4 7 10 4 5 -3 20 1 32 9 32 23 38 19 8 -4z m95 11 c-3 -6 3
-14 12 -20 10 -6 13 -11 8 -11 -6 0 -16 5 -22 11 -8 8 -14 5 -23 -11 -6 -12
-14 -19 -18 -16 -3 3 5 17 18 31 24 25 36 33 25 16z m40 -1 c-3 -5 -12 -10
-18 -10 -7 0 -6 4 3 10 19 12 23 12 15 0z m83 1 c11 -7 10 -9 -3 -14 -9 -4
-13 -3 -10 3 3 6 1 10 -4 10 -6 0 -11 -5 -11 -12 0 -6 -3 -9 -6 -5 -7 7 4 27
14 27 4 0 13 -4 20 -9z m745 -18 c-4 -11 -8 -13 -11 -5 -2 7 -9 9 -15 5 -7 -4
-6 1 2 10 16 20 33 13 24 -10z m47 17 c0 -5 -8 -10 -17 -10 -15 0 -16 2 -3 10
19 12 20 12 20 0z m117 -5 c-4 -8 -2 -17 3 -20 6 -4 10 -11 10 -18 0 -6 -6 -2
-14 8 -12 17 -12 45 1 45 3 0 3 -7 0 -15z m49 -7 c-9 -5 -22 -7 -29 -4 -7 2
-4 5 6 5 10 1 15 5 12 11 -4 6 1 7 11 3 15 -6 15 -7 0 -15z m68 -12 c-6 -16
-8 -17 -16 -2 -11 19 0 42 13 29 6 -6 7 -18 3 -27z m51 24 c-3 -5 -2 -10 4
-10 5 0 13 5 16 10 3 6 11 10 18 10 6 0 3 -6 -8 -13 -12 -10 -14 -16 -7 -21 7
-4 12 -11 12 -17 0 -5 -9 0 -20 11 -12 12 -26 17 -32 14 -9 -6 -9 -9 0 -12 7
-2 12 -8 12 -14 0 -6 -6 -6 -15 2 -12 10 -15 10 -15 0 0 -8 -3 -10 -7 -7 -3 4
4 18 17 32 24 26 36 33 25 15z m-1245 -10 c0 -5 -4 -10 -10 -10 -5 0 -10 5
-10 10 0 6 5 10 10 10 6 0 10 -4 10 -10z m280 -7 c-11 -8 -17 -20 -14 -26 4
-7 -1 -5 -11 5 -22 20 -13 36 20 36 25 0 26 -1 5 -15z m575 7 c-3 -5 -2 -10 2
-10 5 0 18 -7 29 -15 17 -14 15 -14 -13 0 -32 15 -44 35 -22 35 5 0 7 -4 4
-10z m115 -25 c-7 -8 -17 -15 -22 -15 -5 0 -2 7 6 16 9 8 16 21 17 27 0 8 2 8
6 -1 3 -7 -1 -19 -7 -27z m63 19 c7 1 9 1 4 -1 -4 -3 -5 -8 -2 -13 3 -4 -1
-10 -8 -13 -7 -3 -12 5 -13 22 -1 14 1 21 3 14 2 -7 10 -11 16 -9z m422 6 c3
-5 1 -10 -4 -10 -6 0 -11 5 -11 10 0 6 2 10 4 10 3 0 8 -4 11 -10z m-1147 -14
c-10 -7 -14 -17 -10 -21 4 -5 1 -5 -7 0 -12 7 -11 10 4 22 24 17 36 17 13 -1z
m1016 -12 c4 -11 0 -11 -19 2 -30 20 -31 24 -6 17 11 -3 22 -11 25 -19z
m-1344 1 c11 -13 10 -14 -4 -9 -9 3 -16 10 -16 15 0 13 6 11 20 -6z m124 -1
c5 -14 4 -15 -9 -4 -17 14 -19 20 -6 20 5 0 12 -7 15 -16z m83 9 c-9 -2 -15
-8 -13 -12 3 -4 -8 -7 -24 -6 -15 0 -26 4 -23 8 3 5 11 6 19 3 7 -3 16 -1 19
4 4 6 14 9 23 9 15 -1 15 -2 -1 -6z m753 3 c0 -2 -7 -9 -15 -16 -13 -11 -14
-10 -9 4 5 14 24 23 24 12z m51 -19 c-10 -9 -11 -8 -5 6 3 10 9 15 12 12 3 -3
0 -11 -7 -18z m156 16 c-9 -2 -15 -8 -12 -13 7 -11 -22 -7 -32 5 -4 4 -3 5 4
1 6 -3 14 -2 18 4 3 5 14 9 23 9 15 -1 15 -2 -1 -6z m-1259 -11 c8 -6 2 -9
-18 -9 -20 0 -26 3 -18 9 7 4 15 8 18 8 3 0 11 -4 18 -8z m2192 -6 c0 -2 -7
-7 -16 -10 -8 -3 -12 -2 -9 4 6 10 25 14 25 6z m-1675 -43 c0 -6 3 -14 7 -18
6 -7 -30 -55 -42 -55 -11 0 -7 74 5 82 13 10 30 4 30 -9z m1656 -6 c-10 -9
-11 -8 -5 6 3 10 9 15 12 12 3 -3 0 -11 -7 -18z m43 5 c3 -5 -1 -9 -9 -9 -8 0
-15 4 -15 9 0 4 4 8 9 8 6 0 12 -4 15 -8z m-20 -38 c5 -14 4 -15 -9 -4 -17 14
-19 20 -6 20 5 0 12 -7 15 -16z m-1664 -43 c0 -5 -7 -12 -16 -15 -14 -5 -15
-4 -4 9 14 17 20 19 20 6z m1659 -14 c0 -9 -2 -8 -6 1 -2 6 -10 9 -15 6 -7 -4
-8 -2 -4 5 9 13 26 5 25 -12z m-3044 -36 c3 -5 2 -12 -3 -15 -5 -3 -9 1 -9 9
0 17 3 19 12 6z m3165 5 c0 -2 -8 -10 -17 -17 -16 -13 -17 -12 -4 4 13 16 21
21 21 13z m115 -12 c-11 -9 -13 -13 -4 -16 7 -2 13 -11 15 -20 1 -11 -3 -15
-14 -11 -9 4 -13 2 -9 -4 4 -5 0 -18 -7 -28 -10 -14 -15 -15 -21 -5 -5 8 -4
11 2 7 6 -4 13 0 17 8 6 18 -10 30 -18 13 -3 -7 -4 -4 -3 7 1 13 -3 19 -13 17
-11 -3 -10 1 3 16 14 15 15 21 5 25 -7 2 4 4 25 3 31 -1 34 -3 22 -12z m-160
-12 c-3 -3 -11 0 -18 7 -9 10 -8 11 6 5 10 -3 15 -9 12 -12z m-3161 -18 c3 -8
2 -12 -4 -9 -6 3 -10 10 -10 16 0 14 7 11 14 -7z m3326 -74 c0 -5 -4 -10 -10
-10 -5 0 -10 5 -10 10 0 6 5 10 10 10 6 0 10 -4 10 -10z m-25 -40 c-5 -15 -3
-18 9 -14 8 3 17 13 19 22 4 15 5 15 6 -1 0 -10 -7 -21 -16 -24 -15 -6 -15 -7
3 -14 15 -6 15 -8 3 -8 -22 -1 -41 23 -33 43 9 23 17 20 9 -4z m-1 -61 c-3 -5
-11 -9 -17 -8 -8 0 -8 2 1 6 10 4 10 8 0 21 -12 15 -11 16 4 3 10 -7 15 -17
12 -22z m30 -13 c-6 -15 -24 -23 -24 -11 0 8 24 34 28 30 1 -1 0 -10 -4 -19z
m-29 -26 c3 -5 2 -10 -4 -10 -5 0 -13 5 -16 10 -3 6 -2 10 4 10 5 0 13 -4 16
-10z m28 -27 c-7 -2 -19 -2 -25 0 -7 3 -2 5 12 5 14 0 19 -2 13 -5z m-31 -55
c-6 -6 -12 -6 -17 3 -6 8 -4 10 5 4 9 -5 10 -1 6 16 -6 21 -6 22 5 6 7 -13 8
-22 1 -29z m-3406 -38 c0 -41 -3 -46 -23 -48 -13 -1 -23 2 -24 6 0 4 -2 17 -3
29 -2 13 0 21 2 18 9 -9 31 16 26 29 -3 7 1 13 9 13 9 0 13 -14 13 -47z m3431
30 c-2 -11 -6 -22 -9 -26 -4 -3 -5 2 -3 13 2 10 4 21 4 26 1 4 3 7 6 7 3 0 4
-9 2 -20z m423 -200 c0 -5 -2 -10 -4 -10 -3 0 -8 5 -11 10 -3 6 -1 10 4 10 6
0 11 -4 11 -10z m17 -59 c-5 -2 -13 3 -18 10 -15 24 -10 30 9 12 10 -10 14
-20 9 -22z m-27 -16 c0 -5 -5 -3 -10 5 -5 8 -10 20 -10 25 0 6 5 3 10 -5 5 -8
10 -19 10 -25z m27 -20 c-1 0 -11 -8 -22 -17 -20 -16 -21 -16 -21 1 0 11 6 17
13 14 8 -3 13 2 13 13 0 16 2 16 10 4 5 -8 8 -15 7 -15z m4 -50 c5 4 9 2 9 -3
0 -6 -7 -13 -16 -16 -15 -6 -15 -9 2 -29 l19 -22 -22 18 c-12 11 -26 16 -32
13 -11 -7 -6 33 5 43 4 3 4 -2 1 -12 -5 -13 -3 -17 5 -14 7 2 12 15 11 28 -1
15 0 17 3 6 3 -9 10 -15 15 -12z m-4318 -20 c-3 -9 -8 -14 -10 -11 -3 3 -2 9
2 15 9 16 15 13 8 -4z m4285 -55 c-7 -10 -14 -18 -15 -16 -6 6 9 36 18 36 5 0
4 -9 -3 -20z m36 -16 c8 -21 8 -24 -5 -24 -5 0 -7 5 -3 12 5 7 2 9 -9 5 -11
-4 -14 -2 -10 9 7 19 19 18 27 -2z m-27 -46 c-10 -5 -14 -16 -11 -26 5 -14 4
-14 -4 -3 -12 16 6 53 21 44 5 -3 2 -10 -6 -15z m30 -14 c-3 -3 -12 -4 -19 -1
-8 3 -5 6 6 6 11 1 17 -2 13 -5z m-7 -39 c14 -19 14 -19 -2 -6 -10 7 -18 18
-18 24 0 6 1 8 3 6 1 -2 9 -13 17 -24z m-25 -5 c3 -5 1 -10 -4 -10 -6 0 -11 5
-11 10 0 6 2 10 4 10 3 0 8 -4 11 -10z m28 -35 c-1 -5 -7 -11 -15 -13 -9 -2
-8 0 2 7 12 9 12 11 1 11 -8 0 -19 -7 -25 -16 -10 -13 -12 -13 -12 4 0 14 7
19 26 18 14 -1 24 -5 23 -11z m0 -40 c-3 -5 -15 -20 -25 -32 -16 -17 -18 -25
-9 -42 7 -12 8 -21 3 -21 -20 0 -21 44 -1 68 10 14 17 28 13 31 -3 3 -12 -3
-20 -13 -8 -11 -14 -15 -14 -10 0 16 21 33 41 31 10 -1 15 -6 12 -12z m3 -80
c1 -8 -2 -13 -7 -9 -5 3 -7 10 -4 15 4 5 1 9 -4 9 -6 0 -11 5 -11 12 0 17 23
-7 26 -27z m-3 -40 c-1 -5 -7 -11 -15 -13 -9 -2 -8 0 2 7 12 9 12 11 1 11 -8
0 -19 -7 -25 -16 -10 -13 -12 -13 -12 4 0 14 7 19 26 18 14 -1 24 -5 23 -11z
m0 -40 c-3 -5 -15 -20 -25 -32 -16 -17 -18 -25 -9 -42 7 -12 8 -21 3 -21 -20
0 -21 44 -1 68 10 14 17 28 13 31 -3 3 -12 -3 -20 -13 -8 -11 -14 -15 -14 -10
0 16 21 33 41 31 10 -1 15 -6 12 -12z m-4323 -30 c-7 -9 -15 -13 -19 -10 -3 3
1 10 9 15 21 14 24 12 10 -5z m4326 -50 c1 -8 -2 -13 -7 -9 -5 3 -7 10 -4 15
4 5 1 9 -4 9 -6 0 -11 5 -11 12 0 17 23 -7 26 -27z m-3 -40 c-1 -5 -7 -11 -15
-13 -9 -2 -8 0 2 7 12 9 12 11 1 11 -8 0 -19 -7 -25 -16 -10 -13 -12 -13 -12
4 0 14 7 19 26 18 14 -1 24 -5 23 -11z m0 -40 c-3 -5 -15 -20 -25 -32 -16 -17
-18 -25 -9 -42 7 -12 8 -21 3 -21 -20 0 -21 44 -1 68 10 14 17 28 13 31 -3 3
-12 -3 -20 -13 -8 -11 -14 -15 -14 -10 0 16 21 33 41 31 10 -1 15 -6 12 -12z
m3 -80 c1 -8 -2 -13 -7 -9 -5 3 -7 10 -4 15 4 5 1 9 -4 9 -6 0 -11 5 -11 12 0
17 23 -7 26 -27z m-3 -40 c-1 -5 -7 -11 -15 -13 -9 -2 -8 0 2 7 12 9 12 11 1
11 -8 0 -19 -7 -25 -16 -10 -13 -12 -13 -12 4 0 14 7 19 26 18 14 -1 24 -5 23
-11z m0 -40 c-3 -5 -15 -21 -27 -33 l-21 -24 24 -19 c13 -10 19 -19 13 -19
-11 0 -42 27 -42 37 0 3 9 16 20 30 11 15 18 29 14 32 -3 3 -12 -3 -20 -13 -8
-11 -14 -15 -14 -10 0 16 21 33 41 31 10 -1 15 -6 12 -12z m-3 -60 c11 -13 10
-14 -4 -9 -9 3 -16 10 -16 15 0 13 6 11 20 -6z m-17 -55 c18 -21 12 -26 -13
-10 -8 5 -10 10 -5 10 6 0 3 5 -5 10 -8 5 -10 10 -5 10 6 0 18 -9 28 -20z m-3
-41 c0 -5 5 -9 11 -9 5 0 7 5 4 10 -3 6 -1 10 4 10 18 0 12 -18 -14 -45 -30
-30 -46 -34 -20 -5 17 19 17 21 0 40 -17 18 -17 20 -2 14 9 -3 17 -10 17 -15z
m17 -57 c-10 -10 -14 -22 -10 -26 4 -4 0 -4 -9 -1 -13 5 -16 1 -14 -19 2 -15
0 -28 -4 -31 -4 -2 -7 8 -6 24 1 18 11 37 26 50 31 25 38 27 17 3z m7 -51 c3
-5 0 -14 -7 -19 -10 -8 -13 -6 -14 9 -2 19 11 26 21 10z m-258 -193 c-8 -6 -8
-8 1 -8 13 0 11 -26 -3 -40 -6 -6 -10 6 -10 34 -1 34 2 41 12 32 9 -8 9 -13 0
-18z m41 17 c0 -8 -4 -12 -9 -9 -5 3 -6 10 -3 15 9 13 12 11 12 -6z m-252 -95
c-3 -5 -12 -10 -18 -10 -7 0 -6 4 3 10 19 12 23 12 15 0z m-18 -62 c-3 -8 -6
-5 -6 6 -1 11 2 17 5 13 3 -3 4 -12 1 -19z m48 -7 c-6 -5 -25 10 -25 20 0 5 6
4 14 -3 8 -7 12 -15 11 -17z m-25 -10 c0 -5 -7 -12 -16 -15 -14 -5 -15 -4 -4
9 14 17 20 19 20 6z m30 -26 c0 -8 -2 -15 -4 -15 -2 0 -6 7 -10 15 -3 8 -1 15
4 15 6 0 10 -7 10 -15z m-37 -16 c-8 -8 -13 -7 -18 2 -5 8 -4 10 3 5 7 -4 12
-2 12 5 0 7 3 9 7 6 4 -4 2 -12 -4 -18z m27 -19 c0 -5 -4 -10 -10 -10 -5 0
-10 5 -10 10 0 6 5 10 10 10 6 0 10 -4 10 -10z m-28 -62 c-6 -6 -12 -5 -17 3
-5 8 -4 10 3 5 8 -5 12 1 13 16 1 18 2 19 6 4 3 -10 0 -23 -5 -28z m35 10 c-3
-7 -5 -2 -5 12 0 14 2 19 5 13 2 -7 2 -19 0 -25z m-7 -28 c0 -5 -4 -10 -10
-10 -5 0 -10 5 -10 10 0 6 5 10 10 10 6 0 10 -4 10 -10z m-34 -52 c-9 -12 -16
-19 -16 -15 0 11 24 47 28 42 2 -2 -3 -14 -12 -27z m39 -8 c3 -6 -3 -14 -14
-18 -11 -4 -20 -11 -20 -17 0 -5 -4 -10 -11 -11 -6 -2 -7 -1 0 3 5 2 7 9 4 15
-3 5 4 12 16 15 16 4 18 8 8 14 -9 6 -9 9 -1 9 6 0 15 -5 18 -10z m-3255 -95
c-7 -8 -17 -15 -23 -15 -6 0 -2 7 9 15 25 19 30 19 14 0z m1453 -6 c-8 -8 -13
-7 -18 2 -5 8 -4 10 3 5 7 -4 12 -2 12 5 0 7 3 9 7 6 4 -4 2 -12 -4 -18z m67
6 c-7 -8 -17 -15 -23 -15 -6 0 -2 7 9 15 25 19 30 19 14 0z m1440 0 c-14 -17
-30 -20 -30 -4 0 5 4 8 9 4 5 -3 12 -1 16 5 3 5 9 10 12 10 3 0 0 -7 -7 -15z
m-2836 -7 c-2 -4 -14 -5 -26 -3 -12 3 -27 0 -33 -5 -8 -7 -12 -5 -12 3 0 9 14
13 38 13 21 0 36 -4 33 -8z m53 1 c-9 -6 -15 -14 -12 -19 3 -5 1 -11 -4 -14
-5 -4 -8 0 -7 6 3 21 16 38 29 38 7 0 4 -5 -6 -11z m124 -12 c-10 -9 -11 -8
-5 6 3 10 9 15 12 12 3 -3 0 -11 -7 -18z m95 10 c4 -3 -4 -4 -16 -2 -30 6 -40
16 -12 12 12 -2 24 -6 28 -10z m1251 7 c-8 -8 -48 -13 -43 -6 2 4 14 8 26 9
12 1 20 0 17 -3z m993 0 c0 -8 -19 -13 -24 -6 -3 5 1 9 9 9 8 0 15 -2 15 -3z
m161 -17 c-10 -9 -11 -8 -5 6 3 10 9 15 12 12 3 -3 0 -11 -7 -18z m60 0 c-10
-9 -11 -8 -5 6 3 10 9 15 12 12 3 -3 0 -11 -7 -18z m146 3 c-2 -11 -6 -22 -9
-26 -4 -3 -5 2 -3 13 2 10 4 21 4 26 1 4 3 7 6 7 3 0 4 -9 2 -20z m94 -3 c-10
-9 -11 -8 -5 6 3 10 9 15 12 12 3 -3 0 -11 -7 -18z m74 13 c3 -6 -1 -7 -9 -4
-18 7 -21 14 -7 14 6 0 13 -4 16 -10z m-1801 -16 c3 -8 2 -12 -4 -9 -6 3 -10
10 -10 16 0 14 7 11 14 -7z m1676 12 c0 -2 -8 -10 -17 -17 -16 -13 -17 -12 -4
4 13 16 21 21 21 13z m-3163 -21 c0 -8 -4 -12 -9 -9 -5 3 -6 10 -3 15 9 13 12
11 12 -6z m1767 7 c3 -5 -1 -9 -9 -9 -8 0 -12 4 -9 9 3 4 7 8 9 8 2 0 6 -4 9
-8z m-1174 -86 c0 -6 -7 0 -16 12 -9 13 -22 21 -30 18 -8 -3 -11 0 -7 10 5 13
10 11 29 -7 13 -12 24 -27 24 -33z m864 39 c-1 -5 -11 -14 -23 -20 -23 -11
-30 -28 -7 -19 8 3 18 -1 22 -8 10 -15 13 -88 3 -83 -3 3 -15 -3 -25 -11 -10
-9 -14 -13 -7 -10 6 4 15 1 19 -5 4 -7 3 -9 -3 -6 -6 4 -13 0 -16 -8 -4 -9 -1
-12 8 -9 8 3 19 -4 26 -18 6 -13 8 -20 4 -16 -5 4 -14 3 -22 -4 -11 -9 -13 -8
-11 3 2 8 8 18 13 22 6 5 1 6 -11 2 -20 -5 -21 -2 -20 98 l1 104 25 -1 c14 -1
24 -5 24 -11z m-886 -53 c2 -13 -4 -25 -17 -32 -17 -9 -20 -8 -15 5 3 8 10 12
15 9 5 -3 9 4 9 15 0 12 -4 21 -10 21 -5 0 -10 -5 -10 -12 0 -6 -3 -9 -6 -5
-9 9 6 29 19 24 7 -2 13 -13 15 -25z m19 -43 c0 -21 -3 -26 -9 -16 -4 9 -5 22
-2 31 9 23 11 20 11 -15z m-149 -68 c-7 -9 -13 -18 -15 -20 -1 -2 -1 5 0 16 0
11 7 20 14 20 10 0 10 -4 1 -16z m47 9 c3 -6 -1 -7 -9 -4 -18 7 -21 14 -7 14
6 0 13 -4 16 -10z m2265 4 c0 -8 -19 -13 -24 -6 -3 5 1 9 9 9 8 0 15 -2 15 -3z
m241 -11 c13 -16 12 -17 -3 -4 -17 13 -22 21 -14 21 2 0 10 -8 17 -17z m-2690
-10 c13 -16 12 -17 -3 -4 -10 7 -18 15 -18 17 0 8 8 3 21 -13z m32 2 c-3 -9
-8 -14 -10 -11 -3 3 -2 9 2 15 9 16 15 13 8 -4z m2528 -2 c13 -16 12 -17 -3
-4 -17 13 -22 21 -14 21 2 0 10 -8 17 -17z m32 2 c-3 -9 -8 -14 -10 -11 -3 3
-2 9 2 15 9 16 15 13 8 -4z m-2624 -9 c9 -11 9 -16 -1 -22 -7 -4 -10 -4 -6 1
4 4 3 14 -3 22 -6 7 -9 13 -6 13 2 0 10 -6 16 -14z m92 1 c-6 -8 -7 -18 -3
-22 4 -5 1 -5 -6 -1 -10 6 -10 11 -1 22 6 8 14 14 16 14 3 0 0 -6 -6 -13z
m109 9 c0 -2 -8 -10 -17 -17 -16 -13 -17 -12 -4 4 13 16 21 21 21 13z m2359
-10 c9 -11 9 -16 -1 -22 -7 -4 -10 -4 -6 1 4 4 3 14 -3 22 -6 7 -9 13 -6 13 2
0 10 -6 16 -14z m92 1 c-6 -8 -7 -18 -3 -22 4 -5 1 -5 -6 -1 -10 6 -10 11 -1
22 6 8 14 14 16 14 3 0 0 -6 -6 -13z m96 -6 c0 -11 -5 -18 -9 -15 -4 3 -5 11
-1 19 7 21 12 19 10 -4z m-2502 -19 c-3 -3 -11 0 -18 7 -9 10 -8 11 6 5 10 -3
15 -9 12 -12z m900 -11 c-3 -6 3 -15 12 -21 17 -11 17 -11 0 -6 -10 3 -21 6
-23 6 -2 0 -4 7 -4 15 0 8 5 15 11 15 5 0 8 -4 4 -9z m1710 -40 c-3 -6 -11
-11 -16 -11 -5 0 -4 6 3 14 14 16 24 13 13 -3z m-1683 -13 l21 -21 -23 -19
c-32 -26 -36 -23 -36 22 -1 45 7 49 38 18z m1693 -8 c-3 -5 -1 -10 6 -10 7 0
10 -3 6 -6 -9 -9 -28 6 -22 17 4 5 8 9 11 9 3 0 2 -4 -1 -10z m-22 -35 c-3 -9
-8 -14 -10 -11 -3 3 -2 9 2 15 9 16 15 13 8 -4z m17 -15 c-6 -11 -15 -20 -20
-20 -6 0 -2 9 7 20 10 11 19 20 21 20 1 0 -2 -9 -8 -20z m5 -30 c-3 -5 -2 -10
4 -10 6 0 7 -8 4 -17 -6 -15 -7 -14 -13 3 -7 18 -4 34 6 34 3 0 2 -4 -1 -10z
m-1944 -16 c6 -8 16 -14 21 -14 7 0 6 5 0 13 -8 10 -6 13 8 14 11 1 22 -2 25
-8 3 -5 -1 -6 -10 -3 -10 4 -15 2 -13 -6 5 -19 -18 -23 -35 -5 -17 17 -31 20
-22 5 3 -5 2 -10 -3 -10 -6 0 -12 6 -15 13 -7 18 29 19 44 1z m86 -14 c1 -10
-1 -21 -5 -24 -5 -3 -8 8 -8 24 0 32 8 32 13 0z m63 -14 c0 -5 -8 -2 -17 5
-14 12 -16 12 -11 -2 3 -9 1 -16 -5 -16 -7 0 -12 13 -12 28 -1 26 0 26 22 10
12 -9 23 -20 23 -25z m595 14 c4 0 4 7 1 16 -3 9 -2 12 5 9 5 -4 7 -15 4 -26
-5 -14 -1 -19 12 -20 11 0 13 -3 5 -6 -15 -6 -39 13 -53 41 -9 19 -9 20 4 4 8
-10 18 -18 22 -18z m67 11 c-1 -7 3 -11 10 -8 7 2 12 9 11 14 -1 5 7 10 18 10
21 2 46 -34 32 -48 -5 -5 -9 0 -10 12 -3 30 -10 34 -29 18 -9 -8 -31 -14 -48
-15 -17 -1 -25 1 -18 3 9 4 10 9 2 18 -8 9 -5 12 12 11 13 -1 22 -7 20 -15z
m183 8 c4 -5 11 -9 16 -9 6 0 8 4 5 9 -3 4 5 8 17 7 12 -1 21 -8 19 -15 -1 -7
3 -11 10 -8 7 2 12 9 11 14 -1 5 7 10 18 10 21 2 46 -34 32 -48 -5 -5 -9 0
-10 12 -3 31 -10 34 -32 15 -14 -13 -25 -15 -38 -9 -10 5 -30 8 -45 7 -15 -2
-31 3 -37 10 -7 8 -5 12 9 13 11 1 22 -2 25 -8z m-801 -11 c-3 -5 -9 -6 -14
-3 -4 3 -11 -1 -13 -7 -4 -8 -6 -7 -6 4 -1 11 6 16 18 15 11 0 17 -5 15 -9z
m510 -3 c3 -8 1 -15 -3 -15 -5 0 -11 7 -15 15 -3 8 -1 15 3 15 5 0 11 -7 15
-15z m-894 -25 c-24 -15 -36 -11 -14 4 10 8 21 12 24 10 2 -3 -2 -9 -10 -14z
m240 0 c-24 -15 -36 -11 -14 4 10 8 21 12 24 10 2 -3 -2 -9 -10 -14z m800 0
c-24 -15 -36 -11 -14 4 10 8 21 12 24 10 2 -3 -2 -9 -10 -14z m240 0 c-24 -15
-36 -11 -14 4 10 8 21 12 24 10 2 -3 -2 -9 -10 -14z m838 8 c-2 -6 -10 -13
-16 -14 -7 -1 -8 0 -2 3 5 2 8 9 4 14 -3 5 0 9 6 9 7 0 10 -5 8 -12z m-1938
-8 c0 -5 -2 -10 -4 -10 -3 0 -8 5 -11 10 -3 6 -1 10 4 10 6 0 11 -4 11 -10z
m1040 0 c0 -5 -2 -10 -4 -10 -3 0 -8 5 -11 10 -3 6 -1 10 4 10 6 0 11 -4 11
-10z m920 -10 c0 -5 -5 -10 -11 -10 -5 0 -7 5 -4 10 3 6 8 10 11 10 2 0 4 -4
4 -10z m-2383 -26 c-3 -4 -2 -16 4 -28 10 -20 9 -20 -5 -2 -14 17 -13 36 1 36
4 0 3 -3 0 -6z m2365 -3 c-8 -4 -13 -12 -12 -17 1 -5 -4 -10 -12 -12 -9 -2 -8
0 2 7 8 6 11 11 7 11 -5 0 -5 5 -2 10 3 6 12 10 18 10 8 0 8 -3 -1 -9z m22
-27 c-7 -3 -10 -13 -7 -23 6 -23 -8 -33 -27 -19 -12 8 -11 9 3 4 13 -4 18 -1
16 12 -2 27 0 32 14 31 8 0 8 -2 1 -5z m-667 -49 c-1 -1 -9 -6 -18 -13 -16
-12 -17 -9 -10 42 0 6 7 1 15 -10 8 -10 14 -19 13 -19z m-1714 0 c-3 -9 -8
-14 -10 -11 -3 3 -2 9 2 15 9 16 15 13 8 -4z m2372 -24 c3 -6 -5 -15 -17 -21
-21 -10 -21 -10 -6 3 10 8 15 17 11 20 -3 4 -4 7 0 7 3 0 8 -4 12 -9z m-2362
-35 c4 -10 1 -13 -8 -9 -8 3 -12 9 -9 14 7 12 11 11 17 -5z m2372 4 c-3 -5
-12 -10 -18 -10 -7 0 -6 4 3 10 19 12 23 12 15 0z m-678 -32 c-9 -5 -14 -16
-11 -26 4 -13 3 -12 -7 2 -9 15 -9 21 -1 24 7 2 10 8 7 13 -4 5 1 6 11 2 14
-5 15 -7 1 -15z m648 11 c11 -16 1 -19 -13 -3 -7 8 -8 14 -3 14 5 0 13 -5 16
-11z m-2315 -69 c0 -6 -5 -10 -11 -10 -5 0 -7 5 -3 12 5 7 2 9 -8 6 -8 -4 -15
0 -15 7 0 10 5 11 19 4 10 -5 18 -14 18 -19z m2323 13 c-7 -2 -19 -2 -25 0 -7
3 -2 5 12 5 14 0 19 -2 13 -5z m-648 -31 c-16 -11 -17 -34 -3 -44 10 -7 9 -11
-5 -19 -9 -6 -15 -14 -12 -19 3 -5 1 -11 -3 -14 -11 -6 -9 74 2 92 4 6 13 12
19 12 8 0 8 -3 2 -8z m-1695 -14 c0 -4 -4 -8 -9 -8 -6 0 -12 4 -15 8 -3 5 1 9
9 9 8 0 15 -4 15 -9z m2338 0 c-2 -6 -10 -13 -16 -14 -7 -1 -8 0 -2 3 5 2 8 9
4 14 -3 5 0 9 6 9 7 0 10 -5 8 -12z m22 -43 c0 -8 -2 -15 -4 -15 -2 0 -6 7
-10 15 -3 8 -1 15 4 15 6 0 10 -7 10 -15z m-2350 -30 c0 -2 -6 -5 -13 -8 -8
-3 -14 1 -14 8 0 7 6 11 14 8 7 -3 13 -6 13 -8z m-603 -42 c-14 -14 -19 -15
-29 -4 -11 11 -10 13 4 8 10 -3 20 -2 23 3 4 6 9 10 13 10 3 0 -1 -8 -11 -17z
m2402 -6 c0 -9 -2 -9 -6 0 -3 9 -11 7 -26 -7 -11 -11 -23 -18 -25 -15 -7 7 42
44 50 38 5 -2 8 -10 7 -16z m403 -7 c6 0 3 7 -8 15 -18 13 -18 14 4 8 15 -4
21 -11 18 -20 -4 -8 -1 -13 5 -11 6 2 10 7 9 12 -1 5 4 13 12 17 25 16 29 9 8
-13 -11 -12 -18 -29 -15 -37 5 -12 2 -11 -13 2 -19 18 -37 23 -28 9 2 -4 -6
-8 -20 -8 -13 0 -24 2 -25 6 -7 49 -6 51 17 35 13 -8 29 -15 36 -15z m-72 10
c0 -5 -5 -10 -11 -10 -5 0 -7 5 -4 10 3 6 8 10 11 10 2 0 4 -4 4 -10z m0 -28
c0 -13 -12 -22 -22 -16 -10 6 -1 24 13 24 5 0 9 -4 9 -8z"/>
<path d="M1505 4071 c-3 -5 -2 -12 3 -15 5 -3 9 1 9 9 0 17 -3 19 -12 6z"/>
<path d="M3846 4085 c-14 -11 -16 -15 -5 -15 12 0 12 -2 -1 -10 -8 -5 -10 -10
-5 -10 18 0 32 15 32 33 0 9 -1 17 -1 17 -1 0 -10 -7 -20 -15z"/>
<path d="M2020 3859 c0 -5 5 -7 10 -4 6 3 10 8 10 11 0 2 -4 4 -10 4 -5 0 -10
-5 -10 -11z"/>
<path d="M2145 3790 c-3 -6 1 -7 9 -4 18 7 21 14 7 14 -6 0 -13 -4 -16 -10z"/>
<path d="M2145 3761 c-3 -5 0 -13 6 -17 7 -4 9 -3 5 4 -3 5 0 13 6 15 9 4 10
6 1 6 -6 1 -14 -3 -18 -8z"/>
<path d="M4051 3646 c-14 -17 8 -39 28 -27 10 6 9 10 -4 15 -9 3 -13 10 -10
16 9 15 -1 12 -14 -4z"/>
<path d="M614 3269 c-8 -14 14 -19 25 -6 8 10 7 14 -5 14 -8 0 -17 -4 -20 -8z"/>
<path d="M2146 1242 c-3 -5 1 -9 9 -9 8 0 15 4 15 9 0 4 -4 8 -9 8 -6 0 -12
-4 -15 -8z"/>
<path d="M2165 1190 c6 -10 4 -12 -11 -6 -15 6 -17 5 -6 -5 9 -9 15 -10 23 -2
8 8 7 13 -2 18 -8 6 -10 4 -4 -5z"/>
<path d="M2140 1152 c0 -4 9 -8 19 -8 11 0 17 4 15 8 -7 10 -34 10 -34 0z"/>
<path d="M2145 1120 c-3 -6 1 -7 9 -4 18 7 21 14 7 14 -6 0 -13 -4 -16 -10z"/>
<path d="M2150 965 c-7 -9 -11 -17 -9 -20 3 -2 10 5 17 15 14 24 10 26 -8 5z"/>
<path d="M3676 421 c-3 -5 1 -11 9 -15 8 -3 15 -1 15 4 0 13 -18 22 -24 11z"/>
<path d="M3171 4104 c0 -11 3 -14 6 -6 3 7 2 16 -1 19 -3 4 -6 -2 -5 -13z"/>
<path d="M810 4071 c0 -10 39 -11 45 -2 2 5 -7 9 -20 9 -14 0 -25 -3 -25 -7z"/>
<path d="M813 4038 c1 -7 11 -19 22 -26 20 -13 20 -13 -1 -9 -20 4 -21 1 -20
-69 0 -41 5 -74 9 -74 5 0 7 7 4 15 -4 8 -2 17 4 21 7 4 7 10 0 18 -7 8 -5 12
9 12 15 0 17 -4 8 -19 -7 -15 -7 -18 2 -12 7 4 5 -4 -4 -18 -15 -22 -15 -25
-1 -30 8 -4 15 -12 15 -19 0 -10 -2 -10 -9 1 -5 8 -14 10 -21 6 -9 -5 -11 -4
-6 3 4 7 3 12 -2 12 -4 0 -9 -35 -9 -79 0 -76 1 -79 23 -77 17 1 20 4 12 14
-9 11 -13 11 -19 0 -5 -7 -9 -8 -9 -3 0 6 5 16 12 23 9 9 9 12 -1 12 -7 0 -9
5 -6 10 4 6 14 9 23 8 15 -3 17 10 18 102 0 58 -4 110 -9 117 -5 7 -6 17 -2
22 9 15 -13 51 -30 51 -8 0 -14 -6 -12 -12z m20 -63 c-3 -9 -1 -15 5 -13 13 4
17 -15 4 -20 -12 -4 -24 26 -16 39 9 15 14 10 7 -6z m16 -169 c10 -12 9 -17
-6 -24 -15 -8 -18 -6 -19 14 -2 27 8 31 25 10z"/>
<path d="M2530 3809 c0 -5 5 -7 10 -4 6 3 10 8 10 11 0 2 -4 4 -10 4 -5 0 -10
-5 -10 -11z"/>
<path d="M2530 3769 c0 -5 5 -7 10 -4 6 3 10 8 10 11 0 2 -4 4 -10 4 -5 0 -10
-5 -10 -11z"/>
<path d="M2143 3663 c0 -8 6 -9 16 -4 9 5 22 6 29 4 6 -3 12 -1 12 4 0 5 -13
9 -28 8 -16 0 -29 -5 -29 -12z"/>
<path d="M2155 3634 c-18 -18 -19 -25 -4 -21 6 1 14 -4 16 -11 3 -7 1 -11 -4
-10 -4 2 -9 -1 -10 -7 -2 -5 7 -9 20 -9 18 0 22 5 23 31 0 37 -18 49 -41 27z
m30 -22 c-8 -8 -25 10 -19 20 4 6 9 5 15 -3 4 -7 6 -15 4 -17z"/>
<path d="M2506 3632 c-3 -5 1 -9 9 -9 8 0 12 4 9 9 -3 4 -7 8 -9 8 -2 0 -6 -4
-9 -8z"/>
<path d="M593 3598 c-2 -18 0 -20 7 -8 12 18 13 30 2 30 -4 0 -9 -10 -9 -22z"/>
<path d="M623 3613 c4 -3 3 -11 -3 -17 -6 -8 -2 -16 13 -25 18 -11 20 -11 10
0 -7 7 -13 17 -13 22 0 4 6 5 13 1 8 -5 8 -2 -2 9 -7 9 -16 17 -19 17 -3 0 -2
-3 1 -7z"/>
<path d="M605 3558 c19 -11 19 -11 0 -19 -16 -6 -17 -8 -3 -8 23 -1 34 19 17
30 -8 5 -18 9 -24 9 -5 -1 -1 -6 10 -12z"/>
<path d="M630 3489 c0 -5 5 -7 10 -4 6 3 10 8 10 11 0 2 -4 4 -10 4 -5 0 -10
-5 -10 -11z"/>
<path d="M603 3443 c9 -2 15 -9 11 -14 -3 -5 -9 -7 -13 -5 -4 3 -8 -1 -8 -9 0
-11 4 -12 14 -4 10 9 17 8 30 -2 14 -12 14 -10 -1 14 -10 15 -26 26 -35 26
-13 -1 -13 -2 2 -6z"/>
<path d="M626 3381 c10 -10 21 -17 23 -15 6 6 -20 34 -32 34 -6 0 -2 -8 9 -19z"/>
<path d="M598 3373 c6 -2 12 -9 12 -14 0 -6 -4 -8 -8 -5 -5 3 -9 -1 -9 -9 0
-20 10 -19 24 4 10 16 9 20 -3 25 -9 3 -19 6 -22 5 -4 0 -1 -3 6 -6z"/>
<path d="M150 3234 c0 -3 7 -12 15 -21 8 -8 13 -18 10 -23 -3 -4 2 -10 10 -13
12 -5 11 0 -2 28 -15 30 -33 47 -33 29z"/>
<path d="M4500 3232 c0 -4 5 -13 12 -20 7 -7 8 -12 2 -12 -17 0 -13 -33 7 -59
10 -13 16 -27 14 -31 -3 -5 -1 -11 4 -14 5 -3 9 26 8 69 0 41 -4 75 -8 75 -5
0 -6 -14 -4 -30 2 -17 0 -28 -6 -24 -5 3 -7 9 -4 14 7 11 -5 40 -16 40 -5 0
-9 -4 -9 -8z m31 -69 c13 -16 12 -17 -3 -4 -17 13 -22 21 -14 21 2 0 10 -8 17
-17z"/>
<path d="M150 3082 c0 -6 6 -13 13 -15 6 -3 3 -6 -7 -6 -19 -1 -19 -2 2 -21
24 -22 20 -52 -6 -44 -13 4 -13 2 3 -10 21 -18 42 -16 37 4 -1 7 3 19 10 28 9
10 9 13 1 9 -14 -9 -28 10 -28 37 0 11 -6 21 -12 23 -7 3 -13 0 -13 -5z"/>
<path d="M190 3070 c0 -5 5 -10 11 -10 5 0 7 5 4 10 -3 6 -8 10 -11 10 -2 0
-4 -4 -4 -10z"/>
<path d="M150 3020 c0 -5 5 -10 11 -10 5 0 7 5 4 10 -3 6 -8 10 -11 10 -2 0
-4 -4 -4 -10z"/>
<path d="M152 2953 c3 -11 1 -27 -3 -36 -5 -9 -5 -18 -1 -21 5 -3 7 -30 5 -60
-1 -30 1 -57 6 -61 5 -3 8 13 7 35 -2 21 1 37 6 34 5 -4 7 -13 4 -21 -4 -9 -1
-13 6 -10 7 2 12 10 10 17 -1 7 3 19 9 26 9 12 9 18 0 27 -10 9 -11 8 -6 -4 4
-10 2 -20 -3 -23 -9 -5 -9 20 -1 53 2 7 -2 16 -10 19 -8 2 -11 0 -8 -5 3 -5 2
-15 -2 -22 -6 -9 -11 -10 -15 -2 -4 6 -3 11 3 11 5 0 8 9 6 20 -2 13 0 18 7
14 6 -4 9 -1 6 6 -7 23 -32 25 -26 3z"/>
<path d="M175 2790 c3 -5 8 -10 11 -10 2 0 4 5 4 10 0 6 -5 10 -11 10 -5 0 -7
-4 -4 -10z"/>
<path d="M195 2750 c3 -5 8 -10 11 -10 2 0 4 5 4 10 0 6 -5 10 -11 10 -5 0 -7
-4 -4 -10z"/>
<path d="M182 2704 c10 -10 20 -15 24 -12 3 4 -5 12 -18 18 -22 12 -22 12 -6
-6z"/>
<path d="M155 2607 c3 -30 3 -30 21 -13 8 9 20 13 26 10 6 -4 9 -1 6 7 -3 8
-16 15 -30 16 -20 1 -25 -3 -23 -20z"/>
<path d="M145 2510 c3 -5 11 -10 16 -10 6 0 7 5 4 10 -3 6 -11 10 -16 10 -6 0
-7 -4 -4 -10z"/>
<path d="M145 2450 c4 -6 11 -8 16 -5 14 9 11 15 -7 15 -8 0 -12 -5 -9 -10z"/>
<path d="M152 2403 c-6 -3 -9 -10 -5 -16 3 -6 6 -28 6 -49 0 -21 3 -41 8 -44
5 -3 9 -1 9 5 0 5 3 17 7 27 5 13 3 15 -8 9 -12 -8 -12 -6 0 8 10 13 10 17 1
17 -10 0 -10 3 0 15 14 17 3 35 -18 28z"/>
<path d="M155 2220 c3 -5 8 -10 11 -10 2 0 4 5 4 10 0 6 -5 10 -11 10 -5 0 -7
-4 -4 -10z"/>
<path d="M185 2220 c3 -5 11 -10 16 -10 6 0 7 5 4 10 -3 6 -11 10 -16 10 -6 0
-7 -4 -4 -10z"/>
<path d="M151 2108 c1 -13 0 -29 -2 -37 -2 -7 2 -15 9 -16 7 -2 8 -1 2 2 -5 2
-7 9 -4 15 9 14 24 -11 17 -29 -3 -7 -9 -10 -14 -7 -5 3 -9 1 -9 -4 0 -13 29
-24 41 -16 5 3 7 10 3 15 -3 5 0 17 8 26 8 10 8 14 1 10 -14 -9 -28 10 -28 37
0 11 -6 21 -12 23 -8 3 -12 -4 -12 -19z"/>
<path d="M190 2110 c0 -5 5 -10 11 -10 5 0 7 5 4 10 -3 6 -8 10 -11 10 -2 0
-4 -4 -4 -10z"/>
<path d="M153 1985 c0 -26 12 -34 19 -13 3 9 6 9 12 0 4 -7 2 -12 -4 -12 -6 0
-9 -4 -5 -9 3 -5 0 -13 -6 -17 -8 -4 -9 -3 -5 4 4 7 2 12 -3 12 -6 0 -11 -7
-11 -15 0 -22 28 -18 35 5 3 11 10 20 15 20 5 0 -1 11 -14 25 -13 14 -26 25
-28 25 -3 0 -5 -11 -5 -25z"/>
<path d="M4282 1892 c-1 -9 -3 -28 -5 -42 -5 -29 7 -40 35 -32 15 3 16 7 7 13
-8 4 -16 3 -20 -2 -4 -7 -9 -4 -12 6 -4 9 -3 14 2 11 5 -3 8 7 7 23 -1 34 -11
49 -14 23z"/>
<path d="M370 1889 c0 -5 5 -7 10 -4 6 3 10 8 10 11 0 2 -4 4 -10 4 -5 0 -10
-5 -10 -11z"/>
<path d="M4310 1850 c0 -5 5 -10 10 -10 6 0 10 5 10 10 0 6 -4 10 -10 10 -5 0
-10 -4 -10 -10z"/>
<path d="M393 1821 c0 -11 5 -18 9 -15 4 3 5 11 1 19 -7 21 -12 19 -10 -4z"/>
<path d="M400 1765 c-7 -8 -17 -12 -24 -8 -6 3 -7 2 -3 -2 4 -5 15 -10 23 -11
9 -1 13 0 10 3 -3 4 -1 12 5 20 6 7 9 13 6 13 -2 0 -10 -7 -17 -15z"/>
<path d="M598 1598 c13 -13 16 -32 4 -24 -4 2 -9 -5 -9 -17 -2 -20 -1 -20 8
-4 6 9 15 17 21 17 7 0 7 -4 0 -13 -8 -10 -6 -16 9 -25 10 -7 19 -8 19 -3 0 5
-6 12 -12 15 -10 4 -10 7 -1 12 11 5 -29 54 -44 54 -4 0 -2 -5 5 -12z"/>
<path d="M598 1523 c6 -2 10 -9 7 -14 -4 -5 2 -6 12 -2 16 6 16 5 4 -10 -7 -9
-17 -15 -20 -12 -4 2 -8 -2 -8 -10 0 -8 4 -12 9 -9 4 3 8 0 8 -5 0 -6 -5 -11
-12 -11 -6 0 -9 -2 -6 -5 3 -3 13 -3 22 1 13 5 14 9 5 20 -8 10 -8 14 -1 14 6
0 15 -7 20 -17 8 -13 10 -11 10 11 0 26 -30 57 -53 55 -5 0 -4 -3 3 -6z"/>
<path d="M615 1430 c-3 -5 -2 -10 4 -10 5 0 13 5 16 10 3 6 2 10 -4 10 -5 0
-13 -4 -16 -10z"/>
<path d="M601 1400 c8 -6 7 -9 -2 -14 -8 -3 -4 -3 8 0 17 4 21 2 17 -9 -6 -18
12 -32 21 -17 4 6 2 17 -5 24 -8 11 -8 15 2 18 7 3 -2 5 -20 5 -18 0 -28 -4
-21 -7z"/>
<path d="M4063 1318 c-5 -7 -10 -23 -11 -34 0 -17 5 -21 27 -20 22 0 27 5 27
26 1 36 -25 52 -43 28z m32 -23 c0 -10 -7 -19 -16 -20 -13 -2 -17 14 -10 43 3
12 26 -8 26 -23z"/>
<path d="M595 1311 c-3 -5 -2 -12 3 -15 5 -3 9 1 9 9 0 17 -3 19 -12 6z"/>
<path d="M2506 1128 c3 -5 10 -6 15 -3 13 9 11 12 -6 12 -8 0 -12 -4 -9 -9z"/>
<path d="M3834 1078 c1 -18 7 -32 12 -30 5 1 9 5 10 10 2 21 18 41 28 35 6 -3
7 -2 3 2 -4 5 -18 11 -32 12 -21 3 -23 0 -21 -29z m21 13 c3 -5 2 -12 -3 -15
-5 -3 -9 1 -9 9 0 17 3 19 12 6z"/>
<path d="M844 992 c0 -10 6 -19 13 -19 8 0 9 6 2 19 -5 10 -11 18 -12 18 -2 0
-3 -8 -3 -18z"/>
<path d="M844 943 c3 -6 2 -14 -4 -18 -6 -4 -8 -11 -5 -16 4 -5 0 -11 -7 -14
-11 -4 -14 -34 -14 -125 0 -66 3 -120 7 -120 4 0 6 9 4 20 -2 12 0 18 6 15 5
-4 7 -11 4 -16 -4 -5 0 -9 7 -9 10 0 10 -2 -1 -9 -11 -7 -11 -10 0 -15 8 -3 5
-4 -7 -1 -19 5 -20 1 -20 -94 0 -55 3 -98 8 -95 5 3 6 9 3 14 -3 5 0 12 6 16
7 4 10 3 6 -2 -3 -5 2 -18 10 -29 15 -19 15 -19 8 5 -4 14 -12 31 -17 38 -10
12 2 17 27 12 6 -1 4 4 -2 11 -14 15 -18 33 -5 25 5 -3 9 1 9 9 0 8 -3 13 -5
10 -3 -3 -11 0 -19 6 -11 10 -10 14 4 24 16 12 28 89 12 80 -4 -3 -9 2 -13 10
-3 8 -1 17 4 20 5 3 7 14 5 25 -2 11 0 20 5 20 9 0 8 19 -3 37 -4 6 -3 14 2
17 10 7 9 31 -2 42 -10 10 -9 26 1 20 14 -8 7 73 -7 86 -9 8 -12 9 -7 1z m11
-43 c-1 -17 -8 -36 -14 -44 -9 -11 -9 -15 0 -18 7 -2 13 -11 15 -20 1 -10 -3
-15 -10 -12 -7 3 -13 -2 -13 -10 0 -8 7 -18 14 -20 8 -3 11 -11 7 -18 -4 -6
-8 -22 -9 -35 0 -13 -5 -23 -10 -23 -5 0 -10 38 -10 84 0 51 3 82 9 79 5 -4 7
1 3 9 -3 9 -3 19 1 23 4 4 8 11 8 16 5 33 12 24 9 -11z m1 -288 c-2 -8 -9 -18
-17 -23 -11 -6 -15 -2 -15 14 0 15 6 23 17 23 9 0 16 -7 15 -14z m-16 -77 c-8
-9 -7 -14 2 -17 8 -3 8 -6 -3 -10 -11 -4 -15 2 -15 28 0 26 3 31 13 22 10 -8
10 -14 3 -23z"/>
<path d="M2536 883 c-6 -14 -5 -15 5 -6 7 7 10 15 7 18 -3 3 -9 -2 -12 -12z"/>
<path d="M1593 865 c0 -9 4 -14 9 -13 5 2 10 8 10 13 0 5 -5 11 -10 13 -5 1
-9 -4 -9 -13z"/>
<path d="M2830 870 c0 -5 5 -10 11 -10 8 0 8 -4 0 -14 -8 -10 -9 -16 -1 -21 5
-3 10 1 10 9 0 9 5 16 11 16 8 0 8 5 -1 15 -14 17 -30 20 -30 5z"/>
<path d="M1795 841 c-3 -5 -1 -12 5 -16 5 -3 10 1 10 9 0 18 -6 21 -15 7z"/>
<path d="M2570 831 c0 -5 5 -13 10 -16 6 -3 10 -2 10 4 0 5 -4 13 -10 16 -5 3
-10 2 -10 -4z"/>
<path d="M1509 442 c-1 -4 -1 -11 0 -16 1 -5 -5 -6 -14 -2 -20 7 -55 -10 -55
-28 0 -9 15 -13 49 -12 47 1 54 7 38 33 -4 6 -2 13 5 15 8 3 6 7 -5 11 -9 3
-18 3 -18 -1z m18 -35 c3 -4 2 -7 -3 -8 -5 0 -19 -2 -31 -3 -13 -2 -23 3 -23
10 0 13 44 13 57 1z"/>
<path d="M830 425 c0 -8 4 -15 10 -15 5 0 7 7 4 15 -4 8 -8 15 -10 15 -2 0 -4
-7 -4 -15z"/>
<path d="M995 430 c-3 -5 -1 -10 4 -10 6 0 11 5 11 10 0 6 -2 10 -4 10 -3 0
-8 -4 -11 -10z"/>
<path d="M1155 430 c-3 -5 -1 -10 4 -10 6 0 11 5 11 10 0 6 -2 10 -4 10 -3 0
-8 -4 -11 -10z"/>
<path d="M1315 430 c-3 -5 -1 -10 4 -10 6 0 11 5 11 10 0 6 -2 10 -4 10 -3 0
-8 -4 -11 -10z"/>
<path d="M3401 427 c-16 -16 -14 -23 10 -24 18 -2 19 0 7 15 -11 15 -11 15 3
5 9 -7 18 -11 21 -8 2 3 5 -2 5 -10 0 -8 -4 -12 -9 -9 -4 3 -8 1 -8 -4 0 -6 7
-13 16 -16 8 -3 12 -2 9 4 -8 13 1 13 25 0 16 -8 18 -8 14 5 -3 8 -10 12 -15
9 -5 -3 -14 5 -20 18 -11 26 -40 33 -58 15z"/>
<path d="M3482 428 c-7 -7 -12 -15 -12 -18 0 -11 34 -8 48 3 11 8 11 12 0 18
-17 12 -22 11 -36 -3z"/>
<path d="M3555 430 c-3 -5 -1 -10 4 -10 6 0 11 5 11 10 0 6 -2 10 -4 10 -3 0
-8 -4 -11 -10z"/>
<path d="M3369 415 c-1 -5 -1 -14 0 -19 1 -5 -5 -3 -14 4 -11 9 -19 10 -27 2
-6 -6 -16 -8 -23 -6 -7 3 -16 1 -19 -4 -4 -6 7 -9 26 -8 18 1 41 -2 52 -7 13
-6 16 -6 12 2 -9 14 0 14 24 1 16 -8 18 -8 14 5 -3 8 -10 13 -14 10 -5 -3 -13
3 -19 12 -6 10 -11 14 -12 8z"/>
<path d="M3175 399 c-4 -6 -5 -12 -2 -15 2 -3 7 2 10 11 7 17 1 20 -8 4z"/>
<path d="M3850 395 c-22 -12 -23 -14 -4 -12 11 0 26 7 33 14 15 17 3 16 -29
-2z"/>
<path d="M810 392 c0 -5 7 -9 15 -9 8 0 12 4 9 9 -3 4 -9 8 -15 8 -5 0 -9 -4
-9 -8z"/>
</g>
</svg>
